<svg xmlns="http://www.w3.org/2000/svg" xmlns:xlink="http://www.w3.org/1999/xlink" width="260" height="241" viewBox="0 0 260 241"><defs><style>.a,.c{fill:#fff;}.b{fill:#94bc2f;}.c{font-size:24px;font-family:Montserrat-Regular, Montserrat;}.d{clip-path:url(#a);}</style><clipPath id="a"><rect class="a" width="50.51" height="62.449"/></clipPath></defs><g transform="translate(-1106 -742)"><rect class="b" width="260" height="241" rx="4" transform="translate(1106 742)"/><text class="c" transform="translate(1236 944)"><tspan x="-79.548" y="0">Ficha técnica</tspan></text><g transform="translate(1211 808.477)"><g class="d"><path class="a" d="M32.916.595A1.863,1.863,0,0,0,31.5,0h0q-5.89.006-11.779.005Q12.852.007,5.98.013A6.375,6.375,0,0,0,4.5.18,5.9,5.9,0,0,0,0,6.174Q0,15.036,0,23.9V38.482q0,8.93,0,17.861a5.845,5.845,0,0,0,6.1,6.1q19.14.007,38.282,0A5.843,5.843,0,0,0,50.5,56.354q.009-11.043.006-22.085,0-7.6,0-15.2a1.937,1.937,0,0,0-.6-1.479c-5.421-5.409-10.981-10.967-17-16.993m.312,5.987a.5.5,0,0,1,.847-.351L44.287,16.44a.5.5,0,0,1-.351.847H33.723a.5.5,0,0,1-.5-.5Zm14.3,22.923q0,13.365,0,26.731a2.925,2.925,0,0,1-3.25,3.236H6.243a2.953,2.953,0,0,1-3.265-3.283q0-24.963,0-49.926A2.953,2.953,0,0,1,6.242,2.98H29.718a.5.5,0,0,1,.5.5v6.742q0,4.138,0,8.276a1.569,1.569,0,0,0,1.8,1.8q5.146.006,10.292,0h4.732a.5.5,0,0,1,.5.5Z" transform="translate(0)"/><path class="a" d="M27.989,145.809H48.335a1.489,1.489,0,1,0,0-2.978H27.989a1.489,1.489,0,1,0,0,2.978" transform="translate(-19.925 -107.391)"/><path class="a" d="M58.756,171.831H27.989a1.489,1.489,0,1,0,0,2.978H58.756a1.489,1.489,0,0,0,0-2.978" transform="translate(-19.925 -129.195)"/></g></g></g></svg>