<svg xmlns="http://www.w3.org/2000/svg" width="260" height="241" viewBox="0 0 260 241"><defs><style>.a{fill:#94bc2f;}.b,.c{fill:#fff;}.b{font-size:24px;font-family:Montserrat-Regular, Montserrat;}</style></defs><g transform="translate(-830 -742)"><rect class="a" width="260" height="241" rx="4" transform="translate(830 742)"/><text class="b" transform="translate(960 944)"><tspan x="-69.408" y="0">Localização</tspan></text><g transform="translate(923 803.277)"><path class="c" d="M219,172.938V161.744l1.607,1.378a1.191,1.191,0,1,0,1.55-1.809l-12.506-10.72a1.192,1.192,0,0,0-1.551,0l-12.507,10.72a1.191,1.191,0,1,0,1.55,1.809l1.607-1.378v11.193a1.191,1.191,0,0,0,1.191,1.191H217.8A1.191,1.191,0,0,0,219,172.938Zm-2.382-1.191H201.129V159.7l7.742-6.636,7.742,6.636Z" transform="translate(-171.955 -138.872)"/><path class="c" d="M177.262,157.96a1.072,1.072,0,0,1-1.072,1.072H175.7c1.549,1.85,3.041,3.528,4.383,4.962l.013.013.366.389.214.225.156.164q.184.192.362.376a1.19,1.19,0,0,0,.856.363,1.178,1.178,0,0,0,.238-.024,1.191,1.191,0,0,0,.618-.339h0l.362-.376.138-.144.232-.244c1.438-1.519,3.065-3.338,4.761-5.364h-.212a1.072,1.072,0,0,1,0-2.144h1.969c.83-1.035,1.666-2.109,2.5-3.215l.034-.045q.183-.244.366-.491l.087-.117.305-.416.146-.2.23-.318.219-.3.155-.217.291-.408.092-.13q.176-.249.351-.5l.034-.049c4.965-7.117,9.22-15.053,9.678-21.478,0-.031,0-.061.005-.091.01-.158.02-.316.025-.472q.011-.28.01-.556c0-.233,0-.464-.012-.7,0-.071-.005-.143-.008-.214q-.01-.25-.025-.5c0-.076-.009-.151-.014-.227q-.023-.328-.055-.654c-.008-.081-.019-.162-.027-.242-.016-.14-.032-.28-.05-.419-.015-.117-.031-.233-.048-.35-.014-.1-.028-.19-.043-.285q-.118-.749-.284-1.489l0-.016a23.771,23.771,0,0,0-2.7-6.824,1.167,1.167,0,0,0-.076-.112,24.083,24.083,0,0,0-3.122-4.158,1.2,1.2,0,0,0-.41-.428,22.143,22.143,0,0,0-14.176-6.672l-.192-.013-.3-.018q-.208-.01-.416-.017l-.155,0c-.171,0-.342-.007-.514-.007h0c-.171,0-.343,0-.514.007l-.155,0q-.208.006-.416.017l-.3.018-.192.013a22.677,22.677,0,0,0-17.709,11.258,1.179,1.179,0,0,0-.076.112,23.77,23.77,0,0,0-2.7,6.824l0,.016q-.166.74-.284,1.489c-.015.095-.03.19-.044.285-.017.117-.033.233-.048.35-.018.139-.034.279-.05.419-.009.081-.019.161-.027.242q-.033.326-.055.654c-.006.075-.01.151-.014.227q-.015.249-.025.5c0,.071-.006.143-.008.214-.007.232-.012.463-.012.7q0,.276.011.556c.006.156.015.314.025.472,0,.031,0,.061,0,.091.458,6.426,4.713,14.363,9.679,21.481l.032.046q.175.25.351.5l.092.13c.1.142.2.284.3.425l.142.2.238.329c.07.1.14.195.211.292l.167.227.285.387.1.14.349.469.036.047c.83,1.106,1.665,2.179,2.495,3.213h2.248A1.072,1.072,0,0,1,177.262,157.96ZM161.8,127.884v0c0-.212,0-.424.011-.636,0-.054,0-.109.006-.163.007-.174.015-.347.026-.52,0-.041.005-.081.008-.122a21.208,21.208,0,0,1,2.509-8.59l.074-.136q.114-.206.232-.411a20.721,20.721,0,0,1,13.841-10.047l.014,0c.13-.025.261-.047.392-.069l.223-.036c.108-.017.216-.034.324-.049q.213-.029.426-.053l.258-.028q.234-.024.468-.042l.207-.014q.215-.014.431-.023l.188-.008c.2-.007.407-.011.61-.011h0c.2,0,.407,0,.61.011l.188.008q.216.009.431.023l.207.014q.235.018.468.042l.258.028q.214.024.426.053c.108.015.216.032.324.049l.223.036c.131.022.262.045.392.069l.013,0A20.721,20.721,0,0,1,199.429,117.3c.079.136.157.273.232.411l.075.136a21.213,21.213,0,0,1,2.509,8.59c0,.041.005.081.008.122q.016.26.026.52c0,.054,0,.108.006.163.007.212.011.424.011.636v0a22.012,22.012,0,0,1-1.708,7.776q-.071.183-.144.365A61.811,61.811,0,0,1,194.5,146.9q-.507.762-1.026,1.508-.253.365-.507.725-.305.433-.612.86c-.661.918-1.324,1.81-1.981,2.671-.206.27-.412.538-.616.8-.649.837-1.287,1.639-1.905,2.4q-.387.477-.762.931c-2.178,2.639-4.026,4.69-5.049,5.8C178.091,158.308,161.8,139.934,161.8,127.884Z" transform="translate(-145.131 -104.538)"/><path class="c" d="M175.93,332.8l-10.413-18.19a1.072,1.072,0,0,0-.93-.539H145.293a1.072,1.072,0,1,0,0,2.144h8.4L145.559,328.5l-19.615-6.558,3.112-5.725H133.3a1.072,1.072,0,0,0,0-2.144H113.724a1.072,1.072,0,0,0-.93.539l-1.842,3.218,0,0L102.381,332.8a1.072,1.072,0,0,0,.93,1.6H175a1.072,1.072,0,0,0,.93-1.6Zm-61.584-16.585h12.27l-2.736,5.035-10.421-3.484Zm-1.974,3.449,31.962,10.685-1.265,1.911H105.16Zm33.268,12.6,10.62-16.045h7.706l9.186,16.045Z" transform="translate(-102.239 -261.724)"/></g></g></svg>