<svg xmlns="http://www.w3.org/2000/svg" width="260" height="241" viewBox="0 0 260 241"><defs><style>.a{fill:#94bc2f;}.b,.c{fill:#fff;}.b{font-size:24px;font-family:Montserrat-Regular, Montserrat;}</style></defs><g transform="translate(-554 -742)"><rect class="a" width="260" height="241" rx="4" transform="translate(554 742)"/><text class="b" transform="translate(684 944)"><tspan x="-44.868" y="0">Plantas</tspan></text><g transform="translate(653 808.477)"><path class="c" d="M161.04,6.8a1.322,1.322,0,0,0,1.322-1.322V1.322A1.322,1.322,0,0,0,161.04,0H101.234a1.322,1.322,0,0,0-1.322,1.322V61.128a1.322,1.322,0,0,0,1.322,1.322H161.04a1.322,1.322,0,0,0,1.322-1.322V9.887a1.322,1.322,0,1,0-2.643,0V32.531h-5.249a1.322,1.322,0,1,0,0,2.643h5.249V59.806H121.959V53.411a1.322,1.322,0,1,0-2.643,0v6.395h-16.76V2.643h16.76V43.9a1.322,1.322,0,1,0,2.643,0V35.174h23.524a1.322,1.322,0,1,0,0-2.643H121.959V2.643h37.76V5.482A1.321,1.321,0,0,0,161.04,6.8Z" transform="translate(-99.912)"/></g></g></svg>