<svg xmlns="http://www.w3.org/2000/svg" width="260" height="241" viewBox="0 0 260 241"><defs><style>.a{fill:#94bc2f;}.b,.c{fill:#fff;}.b{font-size:24px;font-family:Montserrat-Regular, Montserrat;}</style></defs><g transform="translate(-278 -742)"><rect class="a" width="260" height="241" rx="4" transform="translate(278 742)"/><text class="b" transform="translate(408 944)"><tspan x="-67.764" y="0">Tour virtual</tspan></text><g transform="translate(253 -72.067)"><g transform="translate(124 873.739)"><path class="c" d="M233.277,249.6H227.7a7.856,7.856,0,0,1-7.847-7.847v-16.49a6.189,6.189,0,0,1-3.306-5.488v-18.3a6.216,6.216,0,0,1,6.209-6.209h15.463a6.216,6.216,0,0,1,6.209,6.209v18.3a6.189,6.189,0,0,1-3.306,5.488v16.49A7.856,7.856,0,0,1,233.277,249.6ZM222.758,198.12a3.364,3.364,0,0,0-3.361,3.361v18.3a3.35,3.35,0,0,0,2.322,3.194l.984.32v18.464a5,5,0,0,0,5,5h5.576a5,5,0,0,0,5-5V223.292l.984-.32a3.351,3.351,0,0,0,2.322-3.194v-18.3a3.364,3.364,0,0,0-3.361-3.361Z" transform="translate(-199.545 -173.544)"/><path class="c" d="M238.79,138.38h-.945a9.69,9.69,0,0,1,0-19.38h.945a9.69,9.69,0,1,1,0,19.38Zm-.945-16.531a6.841,6.841,0,0,0,0,13.683h.945a6.841,6.841,0,0,0,0-13.683Z" transform="translate(-207.845 -119)"/><path class="c" d="M186.858,269.521c-7.808,0-15.171-1.215-20.731-3.421-5.977-2.371-9.269-5.688-9.269-9.34,0-5.371,7.127-9.909,18.6-11.842l.474,2.809c-9.552,1.61-16.224,5.325-16.224,9.033,0,2.37,2.723,4.808,7.471,6.692,5.234,2.076,12.223,3.22,19.681,3.22,8.595,0,16.823-1.6,22.01-4.272l1.306,2.532C204.519,267.848,196.021,269.521,186.858,269.521Z" transform="translate(-156.858 -209.048)"/><path class="c" d="M331.5,302.561l-1.3-2.354c-.183-.329-4.471-8.067-4.951-9.028l-1.163-2.326,13.612,1.433Zm-2.446-10.32c.7,1.274,1.569,2.854,2.328,4.228l1.908-3.782Z" transform="translate(-276.447 -240.468)"/></g></g></g></svg>